# xmcd CD database file
#
# Track frame offsets:
#	150
#	23387
#	55417
#	94518
#	117608
#	133634
#	153090
#
# Disc length: 2473 seconds
#
# Revision: 0
# Processed by: cddbd v1.5.2PL0 Copyright (c) Steve Scherf et al.
# Submitted via: CDex 1.51
#
DISCID=4e09a707
DTITLE=The Bush League - The Bush League Rocks
DYEAR=2011
DGENRE=Blues
TTITLE0='59 Chevy
TTITLE1=Death of Robert
TTITLE2=Heaven
TTITLE3=Mexico
TTITLE4=Gotta Woman
TTITLE5=Lazy Sunday Afternoon
TTITLE6=4 Lines
EXTD=YEAR: 2011
EXTT0=
EXTT1=
EXTT2=
EXTT3=
EXTT4=
EXTT5=
EXTT6=
PLAYORDER=
